/* XPM */
static char *result[] = {
/* columns rows colors chars-per-pixel */
"128 128 22 1 ",
"  c #B6B466",
". c #B8B767",
"X c #BBB967",
"o c #B7B568",
"O c #B9B768",
"+ c #BDBB6A",
"@ c #C0BE6C",
"# c #BFC06A",
"$ c #C4C36D",
"% c #C8C76E",
"& c #C7C86E",
"* c #CAC96F",
"= c #C7C670",
"- c #C8C770",
"; c #CDCC71",
": c #D0CF72",
"> c #CFD072",
", c #D3D374",
"< c #D8D775",
"1 c #D7D875",
"2 c #D9D976",
"3 c #DCDC78",
/* pixels */
",1,33332:2,23231:2;3333,,2:3<22,,;;22<,,:,,23<,1,1:<21<<::,332<,:,:2232,:,-23,,,,:*1<<,,:,,2222,:,:<,<<,:1:12231;<:2222<:<,33233",
";;,32:33:-,3222<--;3,;3<-;;2232,;%:3:*<1;;*22,22;*:<,;,1;=;33,,,;=:2,:22;::<32,,$$*<,><,*:,2<222-;:2:-2,-;,3,221;;:3<,32;::33333",
";=,,==-3==,33122==,,=+=2=+:3222,%+-:$+$1*@*<,,,,$@,,=@=<;=:,,,,<;+;:@@;2@+,2,<2,$+,:@@*<$$,2,32,;@::@@=<=+:2,,21==:,=@-2==:32333",
",,,=@=@;,,,22211;;;===+=:;:2,<2,;,;@$$X%***,22,,:,:$@$@;:::2<,2,:,,@+=@;:,:233,,;>-$@$$%;;;<222,;::==$@=;-:2112:;::=@@@;,,,33333",
",2:=@@=;12:2223,21-==++=:,;,,22,:1:$+$@$*,;,122,:2:=@@@;,2;,,<2,;,:=+++;,2;111<,,1-$++=-;,;1,22,::-=@@@-:,;2133,:2:=+==-,2,33233",
"::,=:<=-:-:3223,;--==;==:;:,<232$;;$=,@$*$;1,<21==:@;,@=;;;3222,==;==:+=--:<::,,;;;+=;$-;;:,,222;-:@-<$-;=;2223,;;:=;2=-:;:33333",
"==:,:;::==,3223<==-,;=:;#=,2,22,$$*;,=;;$$*1,,,,$+=::-,:=+:3322:=+::;=:;=#:21,,:$$;:-$->=$:2222,=$,::=::==;3,22,==::;;,,==:33323",
",,,::<-<::,2222,,:,=-2=;;-:1:,,::;:*$;$,,>>,,,2,;;:==2-:;;;,,22,;;;;;,-,:,:11231;;;;;,=>;::12231:,:--:=::;;3,23:::;;;2=,,:,32333",
",2:,33<;,2;3332,;1-:33<=-,:1,11--1>;1,;&:<:,,,<,:2;:23,;:<:<22<,;1=,<21-:2:3232:;,;;11>,;<::32,::<::2<,=:1:1,121;2-:122:,,:33333",
";;,32232=-;3,=3,==:3,22,==;1:-3,$;>2,11>%**<:*,,-;;21232;::2:;2:;;-31<2;;-;1>:31-&>,,21,==:2:-,,==,3<,,:=;:1:;2,--,3,23,-;:3<:33",
";=,32332==,,+=-2==:,<2,,#+-,=+=,&$,1133,$+::$@$,==:,212,==,:@+=:=$-2,,<,=#-;++-3&+;>,22,@+;,@@-:=+:2,,::==::++=,==:22222-#,2==;3",
":,,3322<;,:=====,,:22,3,,:-=+=+#;;,1,22,**%@@$@*-;:,2,,,;:,==+@=-,,,,,11-:>+O+#-*;->,12,-;;=@@@=;;:,:<2,:::++=+;;;-22222,,,=@==:",
",3,3332<,2:=====,3;3,21::1-=++=#,,$,,221,,;@X@$$->;2112:=::=+++=;1,1,11,>1>++++=;,*1211,:,-=@@+=,,;2,,32;:;=+=+=,1;3<<2,:3;=@===",
";;,32332;--=-:===;;3212:=;:+=:+;&**,::21$$*+*,$%--;2222,=;:+=,+=>-:1,,,,---+;1=-*$,31,11---+;:@=-=;,,21,===+=,+==;;1,<22;;;=;<=;",
"==,32332-=:1:=::=@,32,2:=+::==::$$>,:,2,$@$;:*,>=+;11<1,==;:;=,,-+;211,,$#;>-=;-$@;1,,,>==;;;=::=+,123,:#+;:;=,:=@,1<<32-=;1,-<<",
",,,3233,::,-;2=,;-,3,1,::,:=;:=:>:*,1<,>**,;*,*>>;;1,,,,:::;;:-,;;;121,>;;>-=;=;;:;,;,,>-;,--,=;-;,21,1:;;,;;,-,,;;32<32;,2;;<=<",
",3,3333<:3;,333=,1:1,22,:<::<,:;*,*<2<<,*,>,<,>*:<-<<<<<;:-:,3,-;,;,,2<:*2>*,<1:,,*,<<<,,2;:21,;:<:2<<<,;,;:222;;,,33311:3:,333,",
":-,3<;32--:3<22,;;;3,;33-=;2<<<:*$*<**,:***,>,,>%%:<::<,%;:3322,-=;<,:2,*&*2<<2,*$>,**<,-;,2,:<2;-:3:-<,==;2,12,==,31-21;-:33333",
"==,,=@=3-=:2<<22=@,:=+=1=+;,,1,:$$:*+X%,*$*,,,2,%@::@@-<%@:3,<<:$$;,$@;1$+*22<1,$$*>@X%,=@;,,,1,=@::@@-,=+:22221=#,,=+=2==,33333",
",,:====;,,:<223,;;,@@=+-;;;,1<<,:*:$@$@***>,,,,,:,:@@@@-,::22,2,;;;$@$@=**>211,,*>*$@@$*:::2122<:::@@@@=:::22331,,:===+:,:,33333",
",3,===@=,2:2222,:1:==++-::;2131,::*$@$@%>>>,,,,,:<:$@@@:,<;22,2,:::=@@@$*,,2<,,,*,:@X$@%,2:22231::;=@@@=:2;2231,;1:=#++:,2:33333",
"-::=;2==;;,32222;--=-:+=-=;,,22,$$*$*,+**%*<,,,2%-%@%:@*;-;<,13,--:@;<=->*,22,,1*%*@*<$%;;:2,22,:=;@;:@=;;;2111,;=:=:,=-:::33333",
"==:1:-,,==,3<,<2=#;1:=,:%@;2,,,:@+*,*$**$$>,,2<,=$:::-,,;@:2113,%$::::::&$:2<:,,%X*:*%::=@;,,,22=@::;=;;=+;<1,21=#,,:-,,==:33233",
":12-;<=,:::2<,2<,,:--,=:-;:22211;,,*;:$,**>,,2<,:,::-<-,:*;<1,,::::--,$:*>:22:,,*:*$*,@:;;:21221:::=;,=:;;;,,,1,;,,=-2-,:,:13333",
"12:,331-,2:3233<:1;:<<<-:1:123<1>1;,1,>*>>-,131,:<;;121;,;;221,::,-:11,;;,:<111;:<*;1,;-;,>1132:;<;:22,=,,;,,33,:2-:232-,2,33333",
";-,33333;;,3,;3<;-;3<,<,%;;<::<:$->22;>,-$=1;-,,=%;<,,22-=;2,;1:=%;2,,1,-;;1,;1,***<,11:$-,1;-1,--:2111,;;;1>=33==:32232:-,31;33",
"-=,33333==,,===<-+;<<,,:$@;:@+=:$+>21,,,$$--@+#,$+;2,22,==:;=@-,$@-,,11,$$;;++;,$$*,,11,$+;,++=1%@:<22,,=#;;#+=,=#:22222==:,=@-3",
"1,,32231;,:+@@==:;:<<<,:;;%@@++;;;>1,1,;;;;+++o=%;,,,22:;:,@+@+=:::,;,21-*$$+$+-;:*<,11;-;-@+=+-,;,1,2,,-=;#@=+=-,:11222,,;====,",
",3,3223,,2;=@+=-,1;1121:;>=+O@@=;,>>,11>;1-++#+=-::<,,,,;1;=@@@=:,-,1,,,-,;$#+$=>,;1,>,>>1-#+#+=::;<21::;,==@@+=:1;1<22,,3-=@==;",
"-=,33221==:=;1#=;;;1,1,:---+@:@==$->,11,$;-+->#===;1,,,,-=;=-,@=-==,1,,,$-;+-,+=**$,>;>>-=-+=,+===;1,:::==-#=;+===;3,221--;=;<=;",
"-=:32321==:,:=::=+,211,,=$;;$=::$+=1,,1,=#&>;=;;=+-1:22,-=;:;=;;$+=11,,;#$-*=$;;$+$,,1,,=+-;==--=+;<<::,==;,==;;=#,,2,22-=;2;-,<",
",1,3233,;,,:;:=,:;:2111,;--==;$--;;,111,;;;-=-#-;>:,:<<:-;:;;:@;;;-2,,,;-;-$=,#;;$*,121,=-;$=,->;--3<,,,;:;;=,=:,;;3,<2<:,<;:2=2",
",3,3333,:1,,13,-:<:222<::;=;<<>**,*>,<,<>>$*,,>*::%,,1,:-<-:<,;;,<:<,,,:*>>>,>,,,**<2<<,-,**2<,*;:;22<1;;,-;<2,-,1;1232<:2:,332,",
"-,,32=32:--31233;;:3,-,,===<<,,>$**,**::%$%,,22,%$*,;;2,--:31,,,:*:<:*<:>&><,>,<***,:;,<;*:<<<<,-;:2:;:1$*,1,,11$;;1,:2<;;:33333",
"==,1@@=3==-2121,$@::@@=:$@:<,::>$@*>XX$,%X%,22<,$@::@@-<$+;2<1<,$@::@@%:*#*,,,,,%@*:++-:$+:2,,<:=+>:=+=:%@,,,,11$$,,@@-,==:23333",
",,:====:,:,2112,;::$@@+=:::1:<,>*>*$@X@*>**<,2,2*:*@$@@-:::<<<<,:**@@@@***>,,1,,;*%@@@@$*$*2,<<:->;#+++=;;><,,,,;;;$@=@;,:,33333",
",2=====-:<;2122,:,:%@@@%,,:<,,<>,:*@@X@%>>*,>,,,*,:$@@@%:1:2<1,,:,:@XXX*>,*,>,,>*,*+@@@%;,*,,<<<;1-$==+=,,;2<,,:*,;$@@@;:1:33333",
"==,=-2==:;:22222-;:@::$$;=*2,<,,***@%,@*>**<,,2,$$*$%,@$=%;<,1,:%*:@*:X***><,<,,;;*$%,$%***,:,,,%-:$=:@=*%;22<<,*;;$;,=;;;,23233",
"==:3,-1,==:3222,%@:::-::$@:,,:<<$$***$>*##*>,,,,$X%:*%,;$$;<<<1<$@::****#X*<>,<,$@*:;%*:*$*,,<22%@;,-=;;&$:<,<<1$$;,:=::-=,32233",
"31,==3=,:;:2122,::::-:$;:;:,::,,**>%$:$**>>1,<2,:**%%:$,;::<11,,:::**,****>21><,***%%,%:;*:,,,<,:*;;-:=;*,*<<,<,;;:;;,=,::,23333",
",2:<333;:2;3332,:1;,1<,%:,:<,,,:*>*>,<,*,,*<<<<,:,%*,,,::,:2,<,,:,*:<<<%*,*2<,,,*:**<<,*;,;1,1<::,%:,,,;:,;<22<,;1;:131:,1,23333",
"-:,33233;-;3,;22--;22<<<%*;<,%,*#&*<,,<,#&*<,*<,;*;,,222:=-2:-<,**:<,,<,*$*<:*::*$*<1,,,;-*1:*<,%%:2<,,,%%:2,;<,--;2,<22;-:31:33",
"-=:3223,==;;=o=2=@:211,,%@*,$@$:&X>2<>,,&X**##&>$+:<,<,,=@::@@=,$@%<<,,>$#>:@+$,$X*,,,,<-$;:@+$:$@;2<:::$@,,@+%,=#;<<121=@,,=@;3",
",,:3323<,,;=+==-,;:2,,,,*;:@X@@=***,<>>>***#XXX*;;*,,,<,-;-@@@+=::*<22<:***+X@@***&>,,1<-;;+@@+$*;:,,:,,;;:$@@@->::,112<,,,====:",
",2,3233<:3-=+=@=,,-1,,,,;,%$+++$*>*,,,>>**%@X@X*,1-,,,1::,:=@+O=*,:<,<<>*,$+XX#&***,,,2,;,-$+@+@::;,,,,,:,;$@@+=>1>1,232:<:=@=@:",
":;,3222,--:==,==-=;11,1,*%$@->+=***,>,,<*@@@*:@*-=;1,:,:$=;@-;+=**:<,:,>&*$+$*$$*$*12,,,;-*+-,@=%%;11,12-=:@=:@=--;1122,;;:=:,=:",
"==,33223==:,:=::==;2,,,:$+;:;=;;#X*>*,,,$X%*%@,:$+;,,<,:$@:;-=;;*+><<,,,$+**$$**&X>1,21,=+=;-=;;%$;,:,,,%$;;-=,:=@,1,121==,<:-<<",
",,,33<33::,--,=-;;;21;,;=;:;$;$-**&>::<*$$%%%:%:;=;1:1<;=-;=-:-:,*>,<<>**>*$*:&*$&*<,,,,=;;=-;=;=-;1,,2,*-;=;:=:;;;1<,21;::;:<=<",
",2,31333,2-:22:-:,:1,,;,-,-,,,>-*,**:,::*,*,<,,*>,*>:<,::::;:,:;;1:,:,1;;;*;>>>&*::<,:,:*,;:1,:--;;1,1,:;,&;1,,*>1;1111,;2;,2311",
":-,3,-33-=:3,21,===1:=1,*%;11,,;#**,**,:#$*<,<<>$&*,:*,:=$-<,,<<%$-,-=2,-$&,>;,>%**,>*::%$-<,,,:-=-,----$$;,,,1:-;;1,;1,-;,22333",
"-=,,=@=3==;2122,=@;;=o=1$@*,,:>;#X**X@**#X*,,,,,XX,:@X%:@@*<,,2,=+;;@+%,$+-,,*,>XX$%@X$:$+-,1<1;=+--+@$;#+*,,1<,=+;,+@-1-=,23333",
",1,=====:::<,22:;:,=o@@=:*:,;,1;***#.XX%**:<,>>>*:>$@@X*:-:,:,:;->-+@@O$;,;>1>>&**$X.XX$;;;,,,1;=:;++@+$--*,,111;;;=+$$-,;,23333",
",2:=@=@=:2:2223,:,-=@=@=::%,,,<,*:*@XX@@***,,<,*;:%@@@@@::*:,<:;-,-@+@+$>,*,*,,**:*#XXX$;,;1,,<,-,-#++@$>,-,,,<:>1;$+$+-,1;31333",
"=:,=-1=-;=,32,<,=-:+=:@=*%*,,,,,**%X%*X@$*#*:,,:@**@*,@@**:,,<,:$$&+*,$%*$>,>1,>%%*X*:X#-=-,11,,==-+*,+=;=;1<<<,-=;+-;$-:-,23233",
"==:,;-,,==:2<2<,=+:;====$@*:,,,:$$**%$*%##*:::::%@*:*%,:@@:,:,<,$+*;-$;*$#*1,,>>$X***%:>$+>1,,,:$+-;;$>*$+*1<,,<=+;,;=,:==,33333",
",11:;2-::::<223:;,:=-,==***,,<<:***$$,$%***,,:::*::**:%:*:*,,<<,;,-**:%;***>>::*:**%**#>,;;2,,,:-;,-$,$;-*;1<,<,;;>-;1=,;;,31133",
",3:,33,=,3:233<,;3;:1<,;;:=,,,<:*,*:><>&**>,<<,:*,*:<<:**:*,22,:*>*,<<,**>*>>>,,****,,>*:,*<,,,:;,*:,<,%*,*<,,<,:,;:12,;,1,22333",
"-,,32232-::3,=3,=--1<,<,;=-,:%<:*%*,>>>>***,:*:<**:<,:<,*%*<:@2:*&*<<,<,***::*<>**>,,<<,$%*<,%<,$**,,,,<%%*<:*,<;;:<,132;;,31:33",
"==,32231==,:+==<=+;1<<,,$@-,@@%,$X*:>>>>#X**@X$,%@*<,<,:*@:,@@*:$X*<,<,,$X*>XX#*#X*<,>>>@@*:@@%:$@:1,<<,$@:*@@%<%@;,222,==:,=@;3",
",,,3322,-::===+=:;;1<,<:**=$@@@%***,,><>**>#XXX**:*<<:,,*:*@@@@*:**,>,,,*>>@XXX****,,><**::%@@@$-;*,,,,:;**@@@@%;;;1222,:,:=@==:",
",3=33321,2;==@+=:,:2,,2:*,*@@@X%>>*,,,>>*,*#XXX**:*<<,<:*:*@@@@;>:*>,,,,,,*XX@X$*,*,,:<:*::@@@X$:,*,<<:,*,%$@@@%:1:<<131:2:====;",
":=,33331;-;=-;==;-;2,2<:%%%@$:@$*$*,>,,*##*#**X$*$*<<<<:%*;@*:@@***,,,<,*#$X*<X@**$,,,::***@%:@$:%:<<<,,%$*@%:$;;-,,,,11;;:=;,=;",
"==,33311==-1:=;,=+:,:,,2$+%*%$%:%$*>*,,>##***#:*@@:<,,::$$**;%*:%X*<<,<:##*:**::*@*<,:::@@*,*%:*@@:<,,,,$+;:%$:*$$;2,1<<-=:,:;,,",
",1,32211,;:-;2=:;;:1,2,:%*;$%*$:*%%*>,>*******#*::*:,,,,*::*;:@:***,:,<<***$$*$****,::,:%**%$:$*%%*,<<,:*;;*%:%*:**,,<<<::,;;<;2",
",2,3233,:<::23,-:,;,11,;;;**,,,&**&:1<,**:$*,>**-:;1121,-:;:12,;***,:,,:%,***>***,*>:,1,$,*-1,;-;:-11<,;*>*;,11-,,;2121,:2;,2321",
";::3,;32;;:3,,1,-;-1,-,>$$$,,,,,*&*,*&,,***,,*,:$=;2;=,;==-1,,,:%%*<;$,;$@&,>>>>*$*:*&,,$$;<<:,:-=-:;=,:$$;,,,11=-,2:;<,;;,32333",
"==,<=+-2=@:<222,-@:,=+=,$+&,>,,,$X*&  $*$X*:>>,,++;-+o=;@+-11,,:@X::++=:$+$,,,**$X%*X.$;#+,1:111#+-;++=:$+*,,,,,$+;,$+-1=$:32233",
":,,=@=+;:::2<12:--;@+++=-$;,;*,*$$*+ X $>>*:*,,,$--@@+o$;--:,,::**:XO@@=*;>,*>:***%@X.X$-$-,;,,,;;;+++o=-$$,,,1>;,;++$@;,;:23333",
",3:=@=+;:,:2,,2:::-=$+++-;-1:::***$+.X #*>$>*>,*->;$+++=-;->:2::**$@XO+$&>*,,>,*%*%X. X*-,;,,1,--;-=++o=;;%,,,,:;>;#+#@-,3;33333",
"::;=;1=-;-;12,,,=-=+->+=&$-,*:<,&&&+$*XX%$%>::,*$$-+=>==-=;>:<::$@$@$;@$&**>>>,>$@$@$$XX-$->>,>;#=-+=:o=*%-,,,,,$=-+=,$=;-:32333",
"==:,;-1:==:3211,=#-;-=-;#+;>::<:#+&;$X*$@@%>:*::$+-;-=;;=+;1::::@X$*%$;=$#&**>>,$@$**$*%$+->;;>;##--==-;$@:,:,<,$$-;;=;;==:32233",
",,,:;1=:;;:2,221--;=-,$;-$->::::$;;$**$*&%%>**::=;;=->=----1<,:,*:*$$:@%$$&>*,,*$**%*:%*-&>,>1,;;-===;=;%%:,,,,,-;>*;,=,;;,33333",
",3:,32,:,,;212<,:1;;11;=*%*,,,,:>,&$>,>***%,,,:*-,$*,,;$%::,,<:::,**,,,*&>&>,>***,**>,<*%:%,:,::;:-;:,<*::*::<<,;,*;,1,;>1:22333",
";;,33222;-,2,;<,--;11:,1*$*::*::$$&>*:,>%*#,,*<*$$*1>,,;%%%,:*<,**>,:,,,$&*,:*>>$**<,,>,$$:,:%,:==-,>,<>%%*<**<,*%;<,121;-,31:33",
"==:33222=$,:$@=,=+>1,,:,$@**@X@:+X&*>>,*##**#X*:$+;,:,,,%@**@@@,#X*,,,,,$X*&X.$*XX>,,,,*@@::@@@:$+-1,<,,$X*,@@@:%@;1,1,,==;1=@;3",
"<,,3322,:::@+@@=;;>1,1,,:**@X@@$&**,2>*****#X#@%&**1,,,,*:*@@@@%>>*,:,,,**&X...$***,>>,>%*$@@@@$--->::,,:**@@@@%,*:<,,11:,>====:",
",3:3223,:<:=@@@%,:-,21,,*:*@XX+$*>*>,>>>****@@X@*>*<,,,:*:*@@@@$*::,>>,:***#.XX#***<<:>::,%@@@@%-;*,,:,,:,*@@@@*:,;1,,3,:<:-@=@:",
":-,32232-;:@-<@$:-:<,,2,*%*@%:@**#*>*>>*%**X$*@%%%>,,,,:$$%@$:@%*$*<<>>>*&*##&.#*X*,2,:>%*:@**@$$$*,,,<,%%*@*:@%;-:2,11,;;:@;,=:",
"==,33222$$:<:%::$@:,,<<:$@**%$***X*>>>>>XX*:*#**$@*,<,,,@@%*%@:::#*:<<<,*X**$X***X*,,>,>@@%**%::$+*,:,,:@X>:*$*:*@*211<,==:<:-,<",
",,,3232,:::-:,$:*::,,,<,***%%:@****,****#****:@*>**,<:<,%%:%%:$;:**:>,<,****#*#****>::<,%*%**:$****,:,,:%$****%:**><,<<<;:,;:2-<",
",3,3332,:1;,32,-;:;,,,<,::%*<,:*>**,:*******<<>**,-,1,,:*:%:,,,;**:,::,:>,**,,*#*>****,,***:<,:**:*:,1,:*:*:,,,-*,,1<221;1:,332,",
"-:,32-21---22,22=$-<:%,<=%*,,,<,*#*,*X,,%$*<,*<>$$*,,*1,%%%::,,:$#:<*%,,*$*>*>>*#**,*#,,$$*2:,<,%%:<*$::%%*<,,11**;1,;21*;:32333",
"==,1=@=1-=:22,1,$+;,@+$,$+::*,,*##**XX#*XX****,,$X-;$.$:@@*:,,,,#X%,XX$,#X*,,><>XX$*XX**@+-,:,<:$@:;++@;%X*,,,1,$$:;@@*,$$:22233",
",,:=@===,::3222,;;;@+@@@$%*<,*,>>**#XXXX******>,*$*$++@%**:,:,;:***XXXX%***>,><>&*$X#XX*%*;1:,,:%:%++@+$***,,,,,**;$+$@;,:,33333",
",1;=====:1-22,2:;1=@+@+$%%%1:*;,***XXXX#***>>*,,$>&$O++$::;<:,;;:,@@XXX**>*>>,>&%:%XXXX**;-,::,:%,-@+++=;;;,,1,;*,;$+$+-;1:32333",
";;;==;==-=:3<,2,---+=:+$$@$1,;,;##*X$*X$X##>,>,>$$*+=:@$%%-,;1,;*@*@$*X$*#*>*,>*X$*X&*X#-=&>;:,:$%%+$;+=%$;,,,,>$$-+*,@=;-,22333",
"==,2,=,,==:2,,2,=+;;$@==$+-,;,,,#X***#:*X##>,,*>++$;=$;=$@%;;,,;@@***@*@XX*>>>>>XX*:%X:*$+-;;;;:$+$%$$$=$+;,,,,>$+*;&=,;=$:22323",
",,,--2=,;;;21,1:;-:==:+=*%$,-;>;***##:XX#****>,*--$$$-$;$;;,:,,,%@:*@:@*#&$>>>&$#*%##:#*$;-,;::;$;=@$-+$=$$:>,,;$*>*$,$,;;,22233",
",3:,33,;,,:1111>*,*%:<;=***::::*#****,>X***,**,**:%%*,;$:<@*:::;%:**:,*$$&$**,*&#*#$>>**$>**:::-=:--;>;==-$>,,,>->-;<<,;,,;23333",
";::32331==;3:=1,%**,::<,@$*:*%:*XX*>>,**X#*<*&<*@@%,;;;;@@*:*@;*@@*::,,*$$$>$$,*X##:>***$#*,%@::$$-,>;>;+$-,;$>,==;2,,<1--,31;33",
"==,33,3,=@::@+=,@@*<:,,:@X:*XX$*XX**>>**XX##.X&*@@*:;;,;@@**@@@;@@%:>>,*X.&&.X**XX*:**>*@.$*X.$:@+->>>;;$+$*++$;#+;<:1,,-$,,@@;3",
",,:31331,::@+@+=::*::,::%*:XXXX##****>>*#*#XXXX#***:;,,;--@@ @@@$@%:,*::$$*XXXX#$****,>*%*$X.@@$=-$,>,,;$*-++++=;;;1:11,,,;====:",
",3,3123,:3-=+=@=*<*::,:**:$@XXXX*****<,*#*%X ..#**%:::,:*,*@@@@@*:%*:>*****@ . X$****,>**>*@X@@@%;$,11,;*,;@+++%>>;11,1,:2:=@=@:",
";;;3321,--:+=,=@*%*<::,:@@$X**X%##*>*,,*##$X#*X#%@%:::,:@-@@@,@@*@%:,:,*$&*X#&X#***,*,<*$%*@$*@$%$%:,,1;$%*@$;@&--;1<,,,;-:=;<=:",
"==,33111=#:,==;;%@:<,,,:@X%**X#*#X*,*,:*XX%%$$*%@@*::,,,@@*:;@:*@@*,:,,,#X&*$X$&#X*,,,,,@X***$*:$+=,:1,,$+%;-$;;$$>1<112=@:<:;<,",
";,,31131::,--,=;*:*,,,,:***@**X****>*:*****%#*$%**:,:,::**;@*,@:*:::::,,*&***&X$**:,,,>,%$*%$,$*;*=,,,1,***%-,$-&;;1<,<,::::;<-<",
",3,3332,:1-:11,;;,;,<,<:%:*%:<:*****>****>**><>****<<<<,:***<<:*:,*,,:,:*,**,>*&*:*<,*:::,%*:,,*;,*,,,,**,**<<:*::*,,,2,:,:,332<",
";;:3,;22:-:31,3,==-<,-<:$%:,::,:***<>#*****>,<,,*X*<**<****::<<,*X*::*,*X**,,>>>*#*::%::$**,,:::$$*,*@::$$*,>,2,***3>*,<>*:32223",
"==,2===2=#:212,,=+;:@@$:$@*,,*,,XX*>XXX**X*<,*>>*X**XX*,@@*,<<<:$X*:XX*:XX*>>>>>X.%*XX@:XX::,,,,$X%*@.*:$X*:,:<,$$>>@@*:*$:3<233",
",1;=+===,-:21,2,::-+@@@%:%*:,,:**>*X#XX****,,>>****XXXX*;*;,;;;:*::#XXXX>>*>>***#*:XXXX%**:,<,::%%%@@@@**%*:,,<:***$@@@*:::33323",
",2:===+-,,:2,22:::-@@@@=****,,,****XXXX#*****,,**<**XXX*:;*:::::*:*XXXX**,*>>****,*XXX.X::*::::*;:@@.@.@***:,11,*,*$@@@*,<,23333",
";::==,=-:=:<,111--;+-;@$*&*,*,,:*#XX**XXXX***><*XX*X>,X*@@*:,<2:#$*X**X**#****>*##*X$:XX%%:<:,,:**@@%:@%*$*,*;,,***$*:@%:*,2<323",
"==:<:=::==;11,,,=+;;=@==#X*,**,:X#*>#X#*XX*<*>***X******@@;:;,::XX#***,>XX#*>>**%X%**X%%XX*:,,<:@@**%%**$$*,1,,,$X*:*%>>%@,<2233",
",,,;:<=,;;:1211,;-;=-:=;****,,*:***XX*##****>*****:*X*X****:,,::***X#*#****>>>>&#:*#*:X****::;::*%*%@*@%$%*,:,1>*****:%>::,33233",
",3:,22,-,2;331,,->--,,,-**$*,:,:*>X#>>*#**X,,****,**:<:**:%*,2:::,%*:::%***>>:***:$%*****:*::::;*:@*,>;==--1;,>;-,-;111-:,;22223",
"-:,3222,---3,-,:-=;,,,;;%X$**$,:X****>*****,,***XX*,::<*#%*:-@::$%*,::,*XX$,*#**#X*:***<X$@,*$:;@@%,,;,-$+$1;=>>=-;1,,1,**,21,33",
"==,32221==,,++=,=+-,,1>,$X@$. @*#X*>**>#XX*XXXX*XX****::XX%*@ @*XX%,**:*XX%*X X$XX#***:*XX$%X.@;@@*:;;,;++-;++#;$+;1,,1,*$,,=@;3",
":,,322,,=,-@@@+=-;-:;,>;***@@X $###>,****XXX XX*****:**:**$X @@@$X%::***#*#X X @*#****,*%$@X.@@@-@*:;,;;-;&++#+=&=-1,111*,,$@==:",
",3:3332,-1;=+++=;;->>;,-$*@@ X.@#*#*******#XX XX**#**,:*$:@@X@@@$**::***&**X..XX&*&>,,***:*X.XX*=*%::,1;->$oo++=;;-1,<1::<;===@:",
";;:3222,--;@=-@=;=->,>>;++$@@$.X*X******XX#XX*XX*X***,,:$$*X@%@@*#**::<*#X*XX*X##$*,,>**$$*XX$X#===;:,,;$$$+=;+$$$;,1<,,-;;=-1=:",
"==:22<2<=@;:;=;;=+;>,;,;+o%%$@@$XX****>*XX***X**XX**::,,XX*:@@::$X**:,::X.$*$#*##X*,***:XX**%X**@@$:;;:;#+-;--;-#+&,,,1,==:,:;,,",
",,<32<2,:;:==,=---;1,;,;=$%$$%@$#**,,***#**#*,X****<*:,:***@*:@:****:*::*X*$*:X#****,,*,*:*X$*X*--%,,;;:--;&->$;;;*>,1,,;::;;<-<",
",2,22<<<,,*;121*>>;,,<::::*%:<:%***>*,>**>**>>*X%%%<:*::::**:,:****,,<:*@:X%::*$**#:,:::*,$*,:***,@::<::***,>,,*;,*,<,,,>,:,2321",
";;,31:3,*;:2,,<<--;,*%<:%$$::*::XX#<**>*X**>>**<%%%:*%::%%%,,:::*%*,:*,*$$$**:**#*$,*#::$$*<,::*@@*:*@<:%#*,,>,>&&*1:*<,**>22332",
"-=,,$@=<%@:21,<,$$;;@@$:@@$::::>XXX*XXX*XX*>,,>>$X*%XXX:XX*::,::#X**XX$:XX%*****XX**XX#:XX*:,:::@X:*XX$*#X*<,,,>$+;>@X%,*$,22323",
":,,=@=@;:::<,,,,-,-#@@@$:%%,,<:***#XXXXX*X*>,*,>%::@@XX@*:*::,::%**#XXX%**%:,***$**XXXX*****,*,,**@@@XX%***,,,,>***$+@@*,*,22233",
",<:==@@;,1;1,<,:;,%$++X$:>*>:,,**>#XXXXX*>*>>*>,%**$X@X%*:%:::<:*:%XXXX$***>***>**#XXXX**,*:::,**:@@XXX@**:<,,,:>1*$+$@*:1,32323",
":::=;1=-;;;<<,,,--*@%:@$$#*<>>,,#**X## XXX*<*>>*$@$X%*X%%@*:,,:*$%*X*,XX*X*>**>>#X*X$*X****,<<,:@*:@$*X$%#*<,,,,$**@$,$*;-,22333",
"-=:,:=,:$$:2<<,,$+-*%$::#X&>>***XX**#X***X**>,>>$X%%*@**@X*,:::,$X*:*@:**X*>>*,>XX**$X*>#X*::,,:$$::*$:*#X*,,>,:$+*>*%::%$,22333",
",,,:;,%,:;:<<,<:;***%:@%***,,,,**#*##*X**XX,>>,,***$*:@***:,::::$$:*@:$****>*>,>$$*$$*X***$:*,,*$@:@%*$*%%*,,:,:****$:%:;;,22323",
",<:,331;,,;11,1,::**,::$*:*<:,:***$**>**$*%,*:,,::%*<<:*:::,,:,:****,>*******,,>&*&*>>****%*:::;$:**:::@*>*1,,,**>=;121;,,,22323",
";::3323<;-;2:*<,$$:<:::,$#*<:$::&****>,>#X$:%@:,$@%:*:<*@@*<:*,,*##>*>***X*>XX,*#X&>*>>>*@%:%@::@%*::::*$$;,*$,*$&-111<,**;31:33",
"==:3<12<=$;:$@=,$@*<,:,:XX*:XX#*X#***>*>#X**X X:XX$:::::@X*:X @;XX*><>>*XXX*XXX*XX$*>>,>@.%%@.@*%@*:::*:$+-;+X$,$+-1,11,$$,,=@;3",
",,,32131::;$+@@$*:>,,,,:%$$XXXXX#$****>*$#$X..X@**%***:*@**@.@.@***<>***X*XXXXXX###>>>>>@$@@ @.@**%:::::*;-++$+$;*-,,,,1>,;$@==:",
",2:3212,>1-$+@+$*:*<::,:%*@@XX X#*#>$***#*#X.XX@*:$:*:***,*X.XX#*>*,**,***XXXXXX$&$>>:>****@@..@*:@,:,,:=;-+++o$*>*,:1,,:<:=@=@:",
";;,3<22,---@-;@=$@*::%:%@@@@$*XXXX#**>:$XXX @:@@@X$*:*****@XX*X#*#*>*>,*XX#X**XX$$&*>:>*%$@.@*.@@@%:::**=#$+$&+#$$*11,1:-;:@:,=:",
"==,32121-$;;-=;-$@::::**@@**@X@@XX#*>,*$X X*@@**XX%::**:XX@**X**#X**,>**#X##XXX*$ $***%>@ @@@@%%@X@::::%+o$-$+-&$+;,,,,,=@:::;,,",
":,:2122,;-;-=;@-;;-::**:%@*@@*@@###**>**##*#@:X@*@$*:*:*%@$%*:X***#>***#X**XX*XX$$$$****@$$@@*@**@$*:*:%#$$$$-$;$&>,:,2,:::;;,;2"
};
