/* XPM */
static char *_478a03d0ebf44f0d0e51ee02617dcdc4RaT3OZqpf6WnTtD[] = {
/* columns rows colors chars-per-pixel */
"50 50 174 2 ",
"   c #1C260F",
".  c #1F2911",
"X  c #23290E",
"o  c #25320F",
"O  c #242D14",
"+  c #292E14",
"@  c #242D18",
"#  c #292E1A",
"$  c #253215",
"%  c #2B3415",
"&  c #253A16",
"*  c #2D3B16",
"=  c #253319",
"-  c #2C341A",
";  c #273B19",
":  c #2D3B1B",
">  c #323616",
",  c #333C16",
"<  c #31361A",
"1  c #333C1C",
"2  c #393E1D",
"3  c #2E3B21",
"4  c #303322",
"5  c #343D21",
"6  c #393E22",
"7  c #413E1F",
"8  c #433E20",
"9  c #2E4217",
"0  c #2D421A",
"q  c #344217",
"w  c #394217",
"e  c #354916",
"r  c #394817",
"t  c #34421D",
"y  c #3B441D",
"u  c #36491D",
"i  c #3C4A1E",
"p  c #2E4020",
"a  c #354321",
"s  c #394520",
"d  c #394720",
"f  c #3B4523",
"g  c #3F4720",
"h  c #3F4522",
"j  c #3C4623",
"k  c #3F4722",
"l  c #3E4623",
"z  c #3D4225",
"x  c #3B4626",
"c  c #3E4425",
"v  c #3E4525",
"b  c #3F4625",
"n  c #3C4423",
"m  c #364A22",
"M  c #3A4920",
"N  c #3B4920",
"B  c #3B4A21",
"V  c #3D4820",
"C  c #3F4821",
"Z  c #3D4922",
"A  c #3B4D20",
"S  c #3F4C20",
"D  c #3E4D20",
"F  c #3E4E21",
"G  c #3D4D22",
"H  c #3F4C23",
"J  c #3E4E23",
"K  c #3A4B25",
"L  c #3F4825",
"P  c #3C4A23",
"I  c #3F4328",
"U  c #3E4528",
"Y  c #3C4329",
"T  c #3E4A29",
"R  c #3E5223",
"E  c #3E5229",
"W  c #42441D",
"Q  c #414A1E",
"!  c #414A1E",
"~  c #484A1F",
"^  c #45511E",
"/  c #4A531F",
"(  c #404527",
")  c #424523",
"_  c #484420",
"`  c #404820",
"'  c #414921",
"]  c #414B20",
"[  c #404B21",
"{  c #414822",
"}  c #444B22",
"|  c #444C23",
" . c #404924",
".. c #434A24",
"X. c #414826",
"o. c #434926",
"O. c #434B27",
"+. c #444B26",
"@. c #404C25",
"#. c #424C24",
"$. c #434F26",
"%. c #414F27",
"&. c #454F24",
"*. c #444C26",
"=. c #434B24",
"-. c #4A4A25",
";. c #494D24",
":. c #414629",
">. c #40492A",
",. c #434B29",
"<. c #444B2A",
"1. c #434F2B",
"2. c #454E29",
"3. c #454C2A",
"4. c #464D2A",
"5. c #474F2A",
"6. c #43492D",
"7. c #454C2C",
"8. c #444C2A",
"9. c #484F2C",
"0. c #4A4C2A",
"q. c #504E27",
"w. c #415022",
"e. c #415026",
"r. c #425026",
"t. c #455227",
"y. c #445224",
"u. c #4C5527",
"i. c #4B5425",
"p. c #415827",
"a. c #4B5924",
"s. c #425028",
"d. c #455128",
"f. c #425428",
"g. c #445429",
"h. c #465629",
"j. c #45542C",
"k. c #45522B",
"l. c #48502A",
"z. c #485429",
"x. c #49552B",
"c. c #4B532B",
"v. c #475929",
"b. c #4C5A2B",
"n. c #555C27",
"m. c #53552C",
"M. c #525B2C",
"N. c #5B5D2E",
"B. c #454C31",
"V. c #445231",
"C. c #4C5230",
"Z. c #4C5531",
"A. c #4E5933",
"S. c #4E5238",
"D. c #525532",
"F. c #595633",
"G. c #535B32",
"H. c #5B5E33",
"J. c #545C3A",
"K. c #5B5C3B",
"L. c #4B612C",
"P. c #566325",
"I. c #56622E",
"U. c #58602E",
"Y. c #5E692D",
"T. c #556336",
"R. c #5A6434",
"E. c #5B6A35",
"W. c #5D623A",
"Q. c #5E6D3C",
"!. c #606532",
"~. c #606D36",
"^. c #60643A",
"/. c #616D3D",
/* pixels */
"t 1.t * * q & % t y I - < < 6 < y i u * X & 1 * , t K , & % & $ % % h 2 % % u 5 * i u y = @ % n % 2 ",
"i i y B t t & & G G n 2 2 2 1 ..c.;.h.$ & 1 t y i A y r y u t % * y } 2 * , w & F v.s.w.$ ; : 1 < h ",
"*.t.z.H u t : % G u * 1 i  . ...} ,.d * 0 a 1 * u f.h.t.@.t : - - ....2 1 t ) C B B H u : a a t * t ",
", n x 1 * , , - a 0 - n , , w t < 5 t u , < , , * < t t t t t : - 1 - - a 5 , i , * * u a a < : * * ",
"-.2 3 = t Q 4.a t 2 > + 6 x y u : 1 n , : h  .y n ) 1 : ; * #...1 : y % + 6 x w.0 5 1 y 9 1 6 0.2 n ",
"c - 3 % t h.,.1 4. .#.h 4.0.n : % n y w ( n 5.5.) 5 < 4 3 a j.n 1 y G i  .7.:.,.5 - t w y U c c.,...",
"% 2 h y r a.i.c.@.: x ;.#.i h n z.t.| m.i.t < w w , 2 c K G u.i.i.y & t | | Q w x z.y.| 0.5.y n 0.,.",
"@.m.r F n.n.i./ ! 1 a c.H.^.A.y t.H.Q ;.M.m.} 2 , 4.c.d H G.M.c.i.*.- 5 *.m.U.;.y G n.y ;.n.N.z.S.1.",
"n 8 *.d.} Q ! ! w s.K K } _ ) P P A.H w W H./.u & y W -.z.! #.z.W y h m T Q W y Y m b.i W y E./.V.m ",
"l.0.| @.z.Z.2 y y h.t 0 w.) 7 h d.Z.h.u.} ,.s.* m c.0.5.*.t.j.B n n 1.t u K ) 2 Y Z.b.a.i.) z.l.0 t ",
"j.x.R u ,.1 1 n 5 a * * a n ( d G.K.D.E.c.1 < , u j.Z.@.P n a x 5 6 5 1 & m a n u T.E.y.~.j.6 - , 4 ",
": x d. .B.* % = @ - 5 K 1 - I a J.K.( x.,.2 x P * ; K #.h.V.5 % = @ # 5 t : 5 :.C J.W.i m.5.4 6 a 1 ",
"= Y a , d 1 a - @ O < 5 1 , c c T ( 1 1 2 6 S.J.H ; 2 t 1 P a 5 - . @ - t a t 7.n x.C 2 2 2 < G.#.j.",
"- x , h B H d $ % : < 1 P B P x x c 2 - 5 ,.F.( 4 : a 5 I n C 5 @ % 5 % 2 h s.,.c 4.y t - 6 n H.n 1 ",
"% $ t B u ..a & * $ - n d C y ..h 1 2 5 1 h n < 1 1 % 4 Y x K 5 # * $ - 5 ..d.n ( n 2 , 5 4 n x = 4 ",
"- - : & T c.n - % : # , h n ) y 1 4 5 < 2 h 4 - 2 1 < - ; j.G.,.- 4 3 = a 6.( c y 1 1 , 5 5 n 5 @ 5 ",
"1 5 3 = C z.y - 1 n # * < < < 1 * x 5 : 2 2 > 1 c 2 1 < ; @.c.C - x n < : 2 > , : , x 2 % 2 t , = 1 ",
"y t a - * , % : H b...* 6 5 4 ; * u y w , w h i i.) 6 a : 1 2 : 3 y I.z.< 1 , , : m u i < 2 w K x 1.",
"4.y.e t 2 t w i b.i.z.C  .y , * u c.u.! i q t b.U.i.Q B a < 2 t  .z.i.z.| i y 2 t A L.b.r  .1 m f.M.",
"M.R.^ y h y  .h @., i c.y.u.y.* y i.i.| *.B : P z.n.P.a.C h C W  .7.1 n i.y.M.t.t i u.a.w.*.x 1 n 0.",
"0.i.*.c ) w *.y i * m R #.m.;.y n 1 w y y *.f.R W -.i.i.Q y i W W n d E @...m.;.y C q t i #.w.H H ) ",
"o._ W c 4.z.z.) r C u x l.i.5.t.C y t 1 y z.b.i d ..W ) @.*.c.c.h y d.G K 0.q.~ ..j.A t B h c.L.u d ",
"d.Q W d y Q n T 1 : : a #.| l.B u y 9 K 1.c.b.d a 4...) @.W  . .n 1 < & m P 4.z.K K n , d ,.Z.Z.a x ",
"t w #.a 4.< : 1 - - ; 3 * : U d w.@.* 0 , h 4.n : * h T H  ., < 1 & O & ; t t *.B s.C * 1 1 6 I n , ",
": y P , ..- % - @ - - ; 0 ; 5 , H *.; - @ X + : t * ( Y 2 y > + + O O % < t ; n q w. .* : @   O % 0 ",
", 5.n 4 - < % : t C a % , : : : B y n < # @ 1 1 t u K y * % < + + % 1 1 < * < < : w.w t - $ O 5 % a ",
" .0...:.5 y < < b.c.C < < 1 : T j.1.7.% - 5 2 2 x f.i #.n 2 2 # - c ,.2 > 2 5 < ) j.w.R & ; 1 n 2 6 ",
"0.l.x.0.6 t < < A.j.t 5 a n n T n ,.c < 2 6 1 < 1 j.G.b.z.2 < - # I c < n 6 6 y h K T a 3 t c 6 < 5 ",
"6 6 1.a 2 2 x 5 U t - 1 1 1 a a ; 1 6 5 < 6 2 - - c 5.4.n : 5 5 - 5 < - < 1 4 U t * t x 5 5  .y < 2 ",
"6 - - - 4 @.B.1 , w < # c 6 x 3 - 1 5 5 5 ( ( c x n 2 : - 5 @.U : 1 6 < + d n E 1 : : d 1 x W z.x n ",
"6 < - - 5 l.0.1 y y W n ,...n 1 - 6 y 1 2 a 7.;.n 6 - 3 3 t c. .2 2 7.n ) ....U 1 1 1 y 1 n 5 0.,.*.",
"6 o.,.P t.M.i.0.( & B ;.m.c.} t j.i.z.G.G.i * 2 2 y y x T h.n.z.i...5 P l.G.m.Q 1 *.z.5.G.G.2 y ) *.",
"..D.n P b.z.i.i.,.; 0 5.N.!.i.2 Z.J.,...G.m.i 1 > Q i.n T C.x.c.F.i.1 x 0.F.R.;.r ..G.C *.K.n.} P U ",
"( 8 } t.d.c. .W  .B.m a -.0.o.n H l.n h ..U.T.a : 6 7 :.j.l.l.4.)  .w.m A @.) ) ..K A.i #...E.R.K a ",
"l.i.} B @.b.t i y 1.1 0 H ,.c d R a.a.m.| y i.t m w.) ) y w.j.B T A R t 0 A  .2 B p.v./ b.n 4.*.x m ",
"@.w.y.A y.y q q t n 5 * 0 u n K T.E.P.E.n.t 1 t 9 R i.C R w.n n a t x 5 0 0 i B u E.E.a.E.d.x , * : ",
"- t y.i y.> & $ X % 1 a 0 & y y u.G.! a.*.- n i 9 & G j.w.G : & $ . = a m 0 & C i a.I.u u.B - a u t ",
"- d a ,  .u 2 < + X : 1 u * ) d #.@.w y n Y *.a.u * A d t i 0 * ; . + - t a t 4.r b.F q t u : z.^ w.",
"< t t U y u y + % * < 6 t i P P C ) 2 $ 2 ..u.! * 3 0 x U i u 1 + - - - 1 n K K B c ,.a = a y m.y 1 ",
"* o < P m #.t : 1 O : 5 t y 6 U W > 2 : : ..) - 3 < $ 1 x 5 t 1 - - $ ; 1 n ,.1 T 6 5 5 3 : C ) - 1 ",
", & 1 * f.c.u a 3 - + : d n 6 6 1 y 1 ; , n 1 < 5 < - - : s.c.n @ - ; - 1 ) ) 2 1 5 a * - 3 y 5 < 5 ",
"< < a & R i.@.m a t , * 1 2 : 1 t 1.5 * t y , - < , 2 1 : s.h.2 @ - 1 : % 1 1 5 * 0 e t 1 t Q 1 + * ",
") n t ; 9 y t 0 R b.#.* 1 2 4 t 9 P  .t 1 y y 1 ;.Q 2 3 3 5 2 $ - ! M..., 1 < 2 : t e i < 1 w h 2 #.",
"..@.t * 1 n h G v.b.w.B y 1 y d h G.u.y y < 2 c.n.i.r n ; : 1 n } x.A.s.H h 2 1 3 u i.b.y n < n 4.c.",
"G.W.d.@.6 ) n h 1.a u #.m.G.Z.6 l.J.Z.z.4.2 < ,.x.H.M.w.d h n ) c ,.1 t c.u.^.z.a h M.c.t.c.6 5 T Z.",
"( 0.,.n c t 7.) ) , K 1.y c.c.) ) 1 n )  .z.l.z. .( ( ..d n ..( n 6 a 7.G.5.0.0.) ,.2 n y ..4.0.4...",
"B.8 6 ,.1.7.7.1 1 ,.y n D.5.,.C.1.( 6 2 y D.J.t h -.8 ) H P C.j.1 2 ,.n 7.J...) j.0.W y 2 5 4.J.T x ",
",.)  .h x x P 6 2 - - a 1.4.C.m a y 4 n ,.z.A.a t 4.} *.T t t P ( 1 < < ..,.Z.S.x d w * h ,.C.j.m m ",
", P b.b.J.1 + @ + - 4 p t a P T j.5.: t 1 a h 1 ; ; n 1.Z.J.1 % - + + < : x x ,.h j.;.< n 1 6 ,.t 9 ",
"- c T * t & - + @ - - : 1 * 5 t P C.- 3 . @ - : a : ) c : 5 : $ O @ - # : 5 : 5 a ..( - # # @ 3 a B."
};
